<svg xmlns="http://www.w3.org/2000/svg" viewBox="0 0 180 40"><path fill="#005A9C" d="M20 15c0-4 4-5 10-5s10 1 10 4c0 3-4 4-8 5-6 1-12 3-12 8s6 8 13 8 12-2 12-5h-5c0 2-4 3-7 3s-8-1-8-4c0-3 4-4 8-5 6-1 12-3 12-8s-6-8-13-8-15 3-15 7h5zm25 0c0-5 6-5 12-5s12 1 12 5v15c0 4-6 5-12 5s-12-1-12-5V15zm5 15c0 2 3 3 7 3s7-1 7-3V15c0-2-3-3-7-3s-7 1-7 3v15zm25-15h5l10 20h-5l-2-5h-10l-2 5h-5l9-20zm7 11l-3-8-3 8h6zm10-11h5v15h15v5H92V10zm25 0h5v20h-5V10zm10 0h20v5h-15v3h10v5h-10v7h-5V10zm25 0h20v5h-15v3h10v5h-10v3h15v4h-20V10z"/></svg>