<svg width="918" height="186" viewBox="0 0 918 186" fill="none" xmlns="http://www.w3.org/2000/svg">
<path d="M134.656 120.064H142.848L139.52 181.248H9.53674e-07V173.312H24.064V12.8H9.53674e-07V4.864H70.912V12.8H46.848V173.312L86.016 172.544C90.624 172.544 96.3413 171.264 103.168 168.704C109.995 166.144 115.029 163.243 118.272 160C128.512 150.443 133.973 137.131 134.656 120.064ZM390.024 4.09599V12.032C379.955 12.032 374.067 12.8853 372.36 14.592C368.093 18.8587 365.96 25.5147 365.96 34.56V109.824C365.96 137.131 361.267 156.501 351.88 167.936C342.493 179.371 325.341 185.088 300.424 185.088C280.285 185.088 264.584 179.029 253.32 166.912C242.227 154.624 236.68 140.715 236.68 125.184V12.032H213.128V4.09599H283.528V12.032H259.464V124.16C259.464 159.659 275.592 177.408 307.848 177.408C340.957 177.408 357.512 157.611 357.512 118.016V34.56C357.512 25.1733 355.293 18.432 350.856 14.336C349.149 12.8 343.432 12.032 333.704 12.032V4.09599H390.024ZM664.474 173.312V181.248H593.306V173.312H617.114V22.528L555.162 178.432L551.322 178.688L494.746 23.296V151.296C494.746 160 496.879 166.485 501.146 170.752C502.853 172.459 508.655 173.312 518.554 173.312V181.248H462.234V173.312C471.791 173.312 477.423 172.544 479.13 171.008C483.909 166.912 486.298 160.341 486.298 151.296V18.688C485.786 14.7627 483.226 12.8 478.618 12.8H464.282V4.864H514.714L561.818 137.984L615.578 4.864H664.474V12.8H640.666V173.312H664.474ZM917.436 173.312V181.248H850.876V173.312H871.356L853.948 122.88H792.252L782.524 145.92C779.452 153.771 777.916 159.573 777.916 163.328C777.916 166.912 778.428 169.472 779.452 171.008C780.476 172.544 785.852 173.312 795.58 173.312V181.248H739.772V173.312C748.647 173.483 755.047 172.373 758.972 169.984C763.068 167.424 767.505 159.403 772.284 145.92L827.836 0H838.076L898.492 173.312H917.436ZM795.836 113.152H850.364L825.02 38.144L795.836 113.152Z" fill="#F9F8F6"/>
</svg>
